FILE "Lunar - The Silver Star (USA).bin" BINARY
    TRACK 01 MODE1/2352
      INDEX 01 00:00:00
    TRACK 02 AUDIO
      INDEX 00 01:12:22
      INDEX 01 01:14:22
    TRACK 03 AUDIO
      INDEX 00 01:26:29
      INDEX 01 01:28:29
    TRACK 04 AUDIO
      INDEX 00 03:12:13
      INDEX 01 03:14:13
    TRACK 05 AUDIO
      INDEX 00 04:24:12
      INDEX 01 04:26:12
    TRACK 06 AUDIO
      INDEX 00 05:49:17
      INDEX 01 05:51:17
    TRACK 07 AUDIO
      INDEX 00 07:17:09
      INDEX 01 07:19:09
    TRACK 08 AUDIO
      INDEX 00 08:35:21
      INDEX 01 08:37:21
    TRACK 09 AUDIO
      INDEX 00 09:54:35
      INDEX 01 09:56:35
    TRACK 10 AUDIO
      INDEX 00 11:07:36
      INDEX 01 11:09:36
    TRACK 11 AUDIO
      INDEX 00 12:25:56
      INDEX 01 12:27:56
    TRACK 12 AUDIO
      INDEX 00 13:54:54
      INDEX 01 13:56:54
    TRACK 13 AUDIO
      INDEX 00 15:22:67
      INDEX 01 15:24:67
    TRACK 14 AUDIO
      INDEX 00 16:48:48
      INDEX 01 16:50:48
    TRACK 15 AUDIO
      INDEX 00 17:55:17
      INDEX 01 17:57:17
    TRACK 16 AUDIO
      INDEX 00 19:01:44
      INDEX 01 19:03:44
    TRACK 17 AUDIO
      INDEX 00 20:17:03
      INDEX 01 20:19:03
    TRACK 18 AUDIO
      INDEX 00 21:06:46
      INDEX 01 21:08:46
    TRACK 19 AUDIO
      INDEX 00 22:25:15
      INDEX 01 22:27:15
    TRACK 20 AUDIO
      INDEX 00 23:07:05
      INDEX 01 23:09:05
    TRACK 21 AUDIO
      INDEX 00 23:50:41
      INDEX 01 23:52:41
    TRACK 22 AUDIO
      INDEX 00 25:15:17
      INDEX 01 25:17:17
    TRACK 23 AUDIO
      INDEX 00 26:24:29
      INDEX 01 26:26:29
    TRACK 24 AUDIO
      INDEX 00 27:07:55
      INDEX 01 27:09:55
    TRACK 25 AUDIO
      INDEX 00 27:27:17
      INDEX 01 27:29:17
    TRACK 26 AUDIO
      INDEX 00 27:48:40
      INDEX 01 27:50:40
    TRACK 27 AUDIO
      INDEX 00 28:11:65
      INDEX 01 28:13:65
    TRACK 28 AUDIO
      INDEX 00 28:35:14
      INDEX 01 28:37:14
    TRACK 29 AUDIO
      INDEX 00 30:03:15
      INDEX 01 30:05:15
    TRACK 30 AUDIO
      INDEX 00 31:04:16
      INDEX 01 31:06:16
    TRACK 31 AUDIO
      INDEX 00 32:13:48
      INDEX 01 32:15:48
    TRACK 32 AUDIO
      INDEX 00 32:34:21
      INDEX 01 32:36:21
    TRACK 33 AUDIO
      INDEX 00 32:58:50
      INDEX 01 33:00:50
    TRACK 34 AUDIO
      INDEX 00 33:29:51
      INDEX 01 33:31:51
    TRACK 35 AUDIO
      INDEX 00 33:47:47
      INDEX 01 33:49:47
    TRACK 36 AUDIO
      INDEX 00 34:08:41
      INDEX 01 34:10:41
    TRACK 37 AUDIO
      INDEX 00 34:30:04
      INDEX 01 34:32:04
    TRACK 38 AUDIO
      INDEX 00 36:06:05
      INDEX 01 36:08:05
    TRACK 39 AUDIO
      INDEX 00 37:11:56
      INDEX 01 37:13:56
    TRACK 40 AUDIO
      INDEX 00 37:33:62
      INDEX 01 37:35:62
    TRACK 41 AUDIO
      INDEX 00 38:07:63
      INDEX 01 38:09:63
    TRACK 42 AUDIO
      INDEX 00 38:32:61
      INDEX 01 38:34:61
    TRACK 43 AUDIO
      INDEX 00 39:24:62
      INDEX 01 39:26:62
    TRACK 44 AUDIO
      INDEX 00 39:49:37
      INDEX 01 39:51:37
    TRACK 45 AUDIO
      INDEX 00 40:21:38
      INDEX 01 40:23:38
    TRACK 46 AUDIO
      INDEX 00 40:48:39
      INDEX 01 40:50:39
    TRACK 47 AUDIO
      INDEX 00 41:11:40
      INDEX 01 41:13:40
    TRACK 48 AUDIO
      INDEX 00 42:16:52
      INDEX 01 42:18:52
    TRACK 49 AUDIO
      INDEX 00 45:28:53
      INDEX 01 45:30:53
    TRACK 50 AUDIO
      INDEX 00 45:46:37
      INDEX 01 45:48:37
    TRACK 51 AUDIO
      INDEX 00 46:14:69
      INDEX 01 46:16:69
    TRACK 52 AUDIO
      INDEX 00 46:24:04
      INDEX 01 46:26:04
